<svg id="лого_горизонталь" xmlns="http://www.w3.org/2000/svg" xmlns:xlink="http://www.w3.org/1999/xlink" width="150" height="53.379" viewBox="0 0 150 53.379">
  <defs>
    <linearGradient id="linear-gradient" x1="0.5" y1="1.001" x2="0.5" gradientUnits="objectBoundingBox">
      <stop offset="0" stop-color="#fbd80a"/>
      <stop offset="0.149" stop-color="#d5db21"/>
      <stop offset="0.651" stop-color="#50c7b3"/>
      <stop offset="1" stop-color="#1174bf"/>
    </linearGradient>
  </defs>
  <path id="Контур_73" data-name="Контур 73" d="M523.917,49.95c0,.611.489.855,1.344.855s1.222-.244,1.222-.855V45.308c0-.733-.366-1.1-.855-1.1h-1.222V21.977c0-.611-.366-.855-1.221-.855s-1.344.244-1.344.855V44.208h-4.275V21.977c0-.611-.366-.855-1.221-.855s-1.344.244-1.344.855V45.43c0,.733.366,1.1.977,1.1h7.94Zm17.834-15.024a6.911,6.911,0,0,1,1.466,2.565,6.674,6.674,0,0,1,.489,2.932v5.5c0,.611.367.855,1.221.855s1.344-.244,1.344-.855V40.055a11.709,11.709,0,0,0-.611-3.787,12.922,12.922,0,0,0-2.2-3.3l.244-.244a10.191,10.191,0,0,0,1.71-2.809,9.632,9.632,0,0,0,.489-3.42v-4.52a.672.672,0,0,0-.366-.611,1.579,1.579,0,0,0-.977-.244,1.424,1.424,0,0,0-.855.244,1.056,1.056,0,0,0-.366.733v4.153a6.933,6.933,0,0,1-1.588,4.886l-1.71,1.954a7.246,7.246,0,0,1-.489.733V22.1c0-.611-.489-.855-1.344-.855s-1.221.244-1.221.855V45.919c0,.611.366.977,1.221.977s1.344-.366,1.344-.977V37.857a2.232,2.232,0,0,1,.733-1.221ZM554.332,21a4.6,4.6,0,0,0-3.42,1.344,5.768,5.768,0,0,0-1.222,3.909V45.919c0,.611.367.855,1.222.855s1.344-.244,1.344-.855V36.879h4.275v9.039c0,.611.366.855,1.221.855s1.344-.244,1.344-.855V26.252a5.85,5.85,0,0,0-1.222-3.787A4.262,4.262,0,0,0,554.454,21Zm2.2,13.559h-4.275v-8.55a2.869,2.869,0,0,1,.611-1.954,2.087,2.087,0,0,1,3.176,0,3.108,3.108,0,0,1,.611,1.954Zm15.391,3.176c0-2.077-.733-3.542-2.076-4.153a2.675,2.675,0,0,0,1.466-1.588,6.815,6.815,0,0,0,.489-2.565V26.5a5.407,5.407,0,0,0-1.344-3.664,4.6,4.6,0,0,0-3.42-1.344h-3.42c-.611,0-.977.366-.977,1.1V45.552c0,.733.366,1.1.977,1.1h3.542a4.887,4.887,0,0,0,3.542-1.344,5.325,5.325,0,0,0,1.221-3.664Zm-2.687-7.818a3.108,3.108,0,0,1-.611,1.954,1.97,1.97,0,0,1-1.588.733H565.2V23.809h1.832a2.423,2.423,0,0,1,1.588.733,3.494,3.494,0,0,1,.611,2.077Zm.122,11.849a2.888,2.888,0,0,1-.489,1.954,2.218,2.218,0,0,1-1.71.733H565.2V35.047h1.955a2.648,2.648,0,0,1,1.71.611,3.5,3.5,0,0,1,.489,2.077Zm8.428-7.085a3.108,3.108,0,0,1,.611-1.954,1.876,1.876,0,0,1,1.588-.611,2.11,2.11,0,0,1,1.588.611,2.823,2.823,0,0,1,.611,2.077V42.01a2.823,2.823,0,0,1-.611,2.077,2.177,2.177,0,0,1-1.588.733,1.97,1.97,0,0,1-1.588-.733,3.108,3.108,0,0,1-.611-1.954Zm0-12.581c0-.611-.366-.855-1.221-.855s-1.344.244-1.344.855V42.01a4.985,4.985,0,0,0,1.344,3.664,4.6,4.6,0,0,0,3.42,1.344,4.46,4.46,0,0,0,4.764-5.008V34.925a4.935,4.935,0,0,0-1.221-3.664,4.049,4.049,0,0,0-3.176-1.344,3.411,3.411,0,0,0-2.443.977Zm9.039,23.941c0,.611.489.977,1.344.977s1.221-.366,1.221-.977V22.221c0-.611-.367-.977-1.221-.977s-1.344.366-1.344.977Zm5.985-.122c0,.611.367.855,1.222.855s1.344-.244,1.344-.855V38.467a3.1,3.1,0,0,1,.489-1.954,2.648,2.648,0,0,1,1.71-.611h1.954V45.919c0,.611.366.855,1.221.855s1.344-.244,1.344-.855V22.466a.9.9,0,0,0-.977-.977H597.7a4.179,4.179,0,0,0-3.42,1.344,4.819,4.819,0,0,0-1.222,3.542v4.153a7.137,7.137,0,0,0,.366,2.565,2.675,2.675,0,0,0,1.466,1.588c-1.344.733-2.077,2.077-2.077,4.153Zm6.718-12.337H597.7a1.97,1.97,0,0,1-1.588-.733,2.868,2.868,0,0,1-.611-1.954v-4.52a3.108,3.108,0,0,1,.611-1.954,1.876,1.876,0,0,1,1.588-.611h1.832Zm-69.87,12.337c0,.611.489.855,1.344.855s1.221-.244,1.221-.855V21.977c0-.611-.366-.855-1.221-.855s-1.344.244-1.344.855Z" transform="translate(-452.093 -18.435)" fill="#1773ba"/>
  <path id="Контур_74" data-name="Контур 74" d="M27.484,0A27.421,27.421,0,0,1,54.845,27.484a27.929,27.929,0,0,1-2.077,10.627,2.455,2.455,0,0,1-.977-.489L49.959,36.4a5.436,5.436,0,0,0-2.809-.855,5.881,5.881,0,0,0-2.932.855,15.915,15.915,0,0,1-1.832,1.221,3.237,3.237,0,0,1-3.42,0L37.134,36.4a5.881,5.881,0,0,0-2.932-.855,5.436,5.436,0,0,0-2.809.855L29.56,37.622c-.244.122-.366.244-.611.366a127.344,127.344,0,0,1-.122-19.3c0-.122,0-.244.122-.244s.244,0,.244.122a9.108,9.108,0,0,1,1.71,2.077c.122.122.122.122.244.122h.122c.122,0,.122-.122.244-.122a6.222,6.222,0,0,1,2.077-.855l-.366-1.1v-.122h.122a4.575,4.575,0,0,0,1.466.855c.489,0,1.1-.122,1.588-.122h.366a1.811,1.811,0,0,1-.122-.855v-.122h.122a3.153,3.153,0,0,0,1.1,1.1,16.272,16.272,0,0,1,2.321.611v-.366a.12.12,0,0,1,.122-.122l.122.122.366.733a9.111,9.111,0,0,1,1.466.855h.244a.449.449,0,0,0,.122-.366,13.289,13.289,0,0,0-2.565-3.176,10.26,10.26,0,0,0-6.84-2.687,10.406,10.406,0,0,0-2.809.489h0a6.477,6.477,0,0,1,1.466-1.221,2.455,2.455,0,0,0-.489-.977c0-.122,0-.122.122-.244h.122a2.327,2.327,0,0,0,1.221.611,10.749,10.749,0,0,1,1.832-.611V12.7h.122l.366.366c.366,0,.611-.122.977-.122a1.549,1.549,0,0,1,.733.122l.244-.244a.378.378,0,0,0-.122-.244,7.884,7.884,0,0,0-5.13-1.954,7.509,7.509,0,0,0-4.4,1.344,8.093,8.093,0,0,0-4.4-1.344,8.207,8.207,0,0,0-5.252,1.954v.244a.263.263,0,0,0,.244.244,1.549,1.549,0,0,1,.733-.122c.244,0,.611.122.855.122l.366-.366h.122c.122,0,.122,0,.122.122a.378.378,0,0,0-.122.244,12.007,12.007,0,0,1,1.954.611,2.876,2.876,0,0,0,1.222-.611h.122v.244a7.253,7.253,0,0,0-.489.977,4.611,4.611,0,0,1,1.466,1.221,10.39,10.39,0,0,0-2.687-.489,10.03,10.03,0,0,0-6.84,2.687,10.876,10.876,0,0,0-2.565,3.176c-.122.122,0,.244,0,.366H12.7a4.224,4.224,0,0,1,1.466-.855l.366-.733a.12.12,0,0,1,.122-.122l.122.122v.366a12.884,12.884,0,0,1,2.321-.611,2.884,2.884,0,0,0,.977-1.1H18.2a.12.12,0,0,1,.122.122c0,.366-.122.611-.122.855h.244c.611,0,1.1.122,1.71.122a3.162,3.162,0,0,0,1.344-.855h.122a.12.12,0,0,1,.122.122,4.339,4.339,0,0,1-.489,1.1,8.184,8.184,0,0,1,2.2.855l.122.122h.244a.12.12,0,0,0,.122-.122,14.061,14.061,0,0,1,1.71-2.077.378.378,0,0,1,.244-.122.263.263,0,0,1,.244.244A122.685,122.685,0,0,1,25.9,37.622L24.186,36.4a5.436,5.436,0,0,0-2.809-.855,5.881,5.881,0,0,0-2.932.855l-1.832,1.221a2.8,2.8,0,0,1-1.71.489,3.181,3.181,0,0,1-1.832-.489L11.36,36.4a6.271,6.271,0,0,0-2.932-.855A6.271,6.271,0,0,0,5.5,36.4l-1.71,1.221a2.455,2.455,0,0,1-1.588.489A25.868,25.868,0,0,1,0,27.484,27.525,27.525,0,0,1,27.484,0Zm24.43,39.943-1.1,1.832-.855-.611a5.354,5.354,0,0,0-2.809-.733,5.8,5.8,0,0,0-2.932.733,15.914,15.914,0,0,1-1.832,1.221,3.237,3.237,0,0,1-3.42,0l-1.832-1.221a5.8,5.8,0,0,0-2.932-.733,5.354,5.354,0,0,0-2.809.733L29.56,42.386l-.244.244c-.122-.855-.122-1.832-.244-2.565a6.316,6.316,0,0,0,1.588-.733l1.832-1.221a2.8,2.8,0,0,1,1.71-.489,2.944,2.944,0,0,1,1.832.489l1.71,1.221a5.453,5.453,0,0,0,5.863,0l1.71-1.221a3.447,3.447,0,0,1,1.832-.489,2.8,2.8,0,0,1,1.71.489l1.832,1.221A3.821,3.821,0,0,0,51.914,39.943Zm-26.262,2.2-1.466-.977a5.354,5.354,0,0,0-2.809-.733,5.8,5.8,0,0,0-2.932.733l-1.832,1.221a2.8,2.8,0,0,1-1.71.489,3.181,3.181,0,0,1-1.832-.489l-1.71-1.221a6.23,6.23,0,0,0-5.863,0l-1.221.977a18.389,18.389,0,0,1-1.221-2.077,4.82,4.82,0,0,0,1.832-.733l1.832-1.221a2.8,2.8,0,0,1,1.71-.489,2.585,2.585,0,0,1,1.71.489l1.832,1.221a4.869,4.869,0,0,0,2.932.855,4.508,4.508,0,0,0,2.809-.855l1.832-1.221a2.944,2.944,0,0,1,1.832-.489,2.8,2.8,0,0,1,1.71.489l1.832,1.221a1.969,1.969,0,0,0,.855.489Zm24.064,1.344a17.479,17.479,0,0,1-1.344,1.832A4.582,4.582,0,0,0,47.15,45.2a5.8,5.8,0,0,0-2.932.733c-.611.489-1.221.855-1.832,1.344a4.173,4.173,0,0,1-3.42,0l-1.832-1.344A5.8,5.8,0,0,0,34.2,45.2a5.354,5.354,0,0,0-2.809.733L29.56,47.15c0-.855-.122-1.588-.122-2.443A3.821,3.821,0,0,0,30.66,44.1l1.832-1.222a2.8,2.8,0,0,1,1.71-.489,2.944,2.944,0,0,1,1.832.489l1.71,1.222a5.453,5.453,0,0,0,5.863,0l1.71-1.222a3.447,3.447,0,0,1,1.832-.489,2.8,2.8,0,0,1,1.71.489Zm-24.308,3.3-1.221-.855a5.354,5.354,0,0,0-2.809-.733,5.8,5.8,0,0,0-2.932.733l-1.832,1.344a3.9,3.9,0,0,1-1.71.366,4.462,4.462,0,0,1-1.832-.366l-1.71-1.344A6.138,6.138,0,0,0,8.428,45.2a3.882,3.882,0,0,0-1.71.244,16.421,16.421,0,0,1-1.344-1.71l1.344-.855a2.8,2.8,0,0,1,1.71-.489,2.585,2.585,0,0,1,1.71.489L11.971,44.1a4.869,4.869,0,0,0,2.932.855,4.508,4.508,0,0,0,2.809-.855l1.832-1.222a2.944,2.944,0,0,1,1.832-.489,2.8,2.8,0,0,1,1.71.489L24.919,44.1a2.67,2.67,0,0,0,.611.366A14.026,14.026,0,0,0,25.407,46.783Z" fill-rule="evenodd" fill="url(#linear-gradient)"/>
  <path id="Контур_75" data-name="Контур 75" d="M598.513,280.565a1.413,1.413,0,0,0-1.588-1.71c-3.176,0-4.764,5.375-5.008,8.917-.122,2.443.733,3.3,1.954,3.3,2.077,0,4.52-2.321,4.642-4.764a1.475,1.475,0,0,0-1.466-1.832,2.876,2.876,0,0,0-.977.244C597.658,282.764,598.513,281.542,598.513,280.565Zm49.349-1.954a.57.57,0,0,0-.611-.611,1.848,1.848,0,0,1-1.588,1.344.648.648,0,0,1-.733-.733c0-.244,0-.366.122-.489a1.55,1.55,0,0,0-.733-.122,1.318,1.318,0,0,0-1.466,1.344,1.667,1.667,0,0,0,1.71,1.71A3.153,3.153,0,0,0,647.861,278.611Zm-51.3,7.329c.366.977-.122,3.664-1.71,3.664-.489,0-.977-.366-.977-2.077a.449.449,0,0,1,.122-.366c.489-.733,1.1-1.344,1.466-1.832C596.07,285.329,596.436,285.573,596.558,285.94Zm.366-5.985c.366,0,.366.244.366.733,0,.855-.977,2.443-3.176,5.13C594.6,283.375,595.7,279.954,596.925,279.954Zm6.23,2.321c-2.443,0-4.275,2.932-4.275,5.985,0,.977.366,2.809,2.076,2.809a3.5,3.5,0,0,0,2.565-1.71c0,1.344.733,1.71,1.588,1.71a5.292,5.292,0,0,0,2.932-1.71.449.449,0,0,0,.122-.366c0-.122-.122-.244-.244-.366a3.622,3.622,0,0,1-1.832.855c-.366,0-.733-.366-.489-1.221l1.222-5.619a1.766,1.766,0,0,0-.855-.244,1.326,1.326,0,0,0-1.1.489,2.648,2.648,0,0,0-1.71-.611Zm.367,5.985a2.25,2.25,0,0,1-1.71,1.1c-.489,0-.855-.366-.855-1.222,0-1.832.733-4.52,2.687-4.52a1.811,1.811,0,0,1,.855.122Zm9.772,2.809c1.221,0,2.076-.855,2.932-1.71a.449.449,0,0,0,.122-.366c0-.122-.122-.244-.244-.366a3.622,3.622,0,0,1-1.832.855c-.366,0-.733-.366-.489-1.221L615,282.642a1.766,1.766,0,0,0-.855-.244,1.281,1.281,0,0,0-1.344,1.1l-.489,2.443c-.611,0-1.344.122-2.077.122l.611-2.687c.122-.733-.244-.977-.855-.977a2.6,2.6,0,0,0-1.832.855.511.511,0,0,0,0,.855.378.378,0,0,1,.244-.122c.244,0,.244.122.244.366l-1.466,6.474a1.765,1.765,0,0,0,.855.244,1.4,1.4,0,0,0,1.344-1.1l.611-2.809a10.485,10.485,0,0,0,2.077-.366l-.244,1.588C611.338,290.581,612.438,291.07,613.293,291.07Zm11.36-1.71a.59.59,0,0,0,0-.855,14.287,14.287,0,0,1-2.443,1.466,1.549,1.549,0,0,0,.122-.733l1.466-6.6a1.736,1.736,0,0,0-.733-.244,1.416,1.416,0,0,0-1.221.489,2.416,2.416,0,0,0-1.71-.611c-2.321,0-4.275,2.932-4.275,5.985,0,.977.366,2.809,2.077,2.809a3.326,3.326,0,0,0,2.565-1.588,5.5,5.5,0,0,0-.366,1.344c-2.321.855-5.008,2.443-5.008,4.52a1.986,1.986,0,0,0,2.077,2.077c2.932,0,4.031-3.3,4.764-6.474A16.825,16.825,0,0,0,624.653,289.36Zm-4.031-1.1a2.741,2.741,0,0,1-1.71,1.1c-.611,0-.977-.366-.977-1.222,0-1.832.733-4.52,2.809-4.52a1.55,1.55,0,0,1,.733.122Zm-3.665,7.7a.836.836,0,0,1-.611-.855c0-1.1,1.466-2.321,3.42-3.176-.855,2.809-1.588,4.031-2.809,4.031Zm5.619,1.1a1.31,1.31,0,0,0,.733.244,1.535,1.535,0,0,0,1.466-1.1l1.1-5.619a1.568,1.568,0,0,0,1.221.489c2.81,0,4.642-3.3,4.642-5.863,0-1.588-.611-2.809-2.077-2.809a2.932,2.932,0,0,0-2.321,1.344l.122-.366c.122-.733-.244-.977-.855-.977a2.6,2.6,0,0,0-1.832.855.511.511,0,0,0,0,.855.378.378,0,0,1,.244-.122c.244,0,.244.122.244.366Zm6.107-12.948c.611,0,.977.489.977,1.71,0,1.588-.977,3.909-2.687,3.909a2.079,2.079,0,0,1-.855-.122l.855-4.4A2.528,2.528,0,0,1,628.684,284.108Zm12.215-.855c-.611.489-1.221,1.221-1.954,1.71a1.5,1.5,0,0,0-1.344-.855c-.977,0-1.344.855-.977,1.832.244.122.489.122.733.244a.915.915,0,0,1,.122.611c0,1.588-1.1,2.809-1.954,2.809-.611,0-1.1-.611-1.1-2.077,0-1.71.977-3.909,2.565-3.909.366,0,.733.122,1.1.122.244.122.489,0,.611-.366a2.272,2.272,0,0,0-2.076-1.1c-2.565,0-4.275,3.3-4.275,5.741,0,1.588.733,3.054,2.443,3.054,1.954,0,4.4-2.565,4.4-5.13V285.7a10.917,10.917,0,0,0,1.71-1.588A.511.511,0,0,0,640.9,283.252Zm-.244,4.52c-.366,1.588-.244,3.3,1.466,3.3a2.893,2.893,0,0,0,2.2-1.466c-.122.489-.244.977-.366,1.344-2.687,1.221-5.008,2.2-5.008,4.4a2.032,2.032,0,0,0,1.954,2.077c3.054,0,4.275-3.3,5.13-6.474a20.8,20.8,0,0,0,2.565-1.588c.366-.244.244-.611,0-.855a14.294,14.294,0,0,1-2.443,1.466c.122-.244.122-.489.244-.733l1.344-6.6a1.31,1.31,0,0,0-.733-.244,1.4,1.4,0,0,0-1.466,1.1l-1.1,5.008a1.7,1.7,0,0,1-1.221.611c-.611,0-.733-.366-.611-.977l1.1-4.764c.122-.733-.244-.977-.855-.977a3.145,3.145,0,0,0-1.954.855.728.728,0,0,0,0,.855.945.945,0,0,1,.366-.122c.122,0,.244.122.244.366Zm.367,8.184a.813.813,0,0,1-.733-.855c0-1.221,1.344-2.077,3.42-3.054C642.853,294.735,642.12,295.956,641.021,295.956ZM651.4,283.375c.122-.733-.244-.977-.855-.977a2.846,2.846,0,0,0-1.832.855.511.511,0,0,0,0,.855.449.449,0,0,1,.366-.122c.122,0,.244.122.122.366l-1.344,6.474a1.309,1.309,0,0,0,.733.244,1.535,1.535,0,0,0,1.466-1.1l.611-2.809.244-.122c.244,1.344.733,4.031,2.321,4.031a4.779,4.779,0,0,0,2.565-1.71.449.449,0,0,0,.122-.366c0-.122-.122-.244-.244-.366-.489.366-.855.733-1.222.733-1.221,0-1.71-2.077-1.832-2.932.977-.733,2.321-2.2,2.321-3.176a.835.835,0,0,0-.855-.855,1.163,1.163,0,0,0-.855.244c-.366,1.71-1.466,3.3-2.321,3.542h-.122Zm5.5-3.176a1.011,1.011,0,0,0,1.1,1.221,1.422,1.422,0,0,0,1.344-1.221,1.1,1.1,0,0,0-1.1-1.1A1.329,1.329,0,0,0,656.9,280.2Zm-1.466,8.795c-.366,1.588.611,2.077,1.466,2.077a4.585,4.585,0,0,0,3.054-1.71.449.449,0,0,0,.122-.366c0-.122-.122-.244-.244-.366a3.209,3.209,0,0,1-1.832.855c-.366,0-.611-.366-.489-1.221l1.1-4.886c.122-.733-.244-.977-.855-.977a2.6,2.6,0,0,0-1.832.855.511.511,0,0,0,0,.855.378.378,0,0,1,.244-.122c.244,0,.244.122.244.366Z" transform="translate(-519.604 -244.042)" fill="#1773ba"/>
</svg>
