<svg xmlns="http://www.w3.org/2000/svg" width="14" height="14" viewBox="0 0 14 14">
  <path id="Контур_79" data-name="Контур 79" d="M3275.137,7615h-6.273a3.866,3.866,0,0,0-3.864,3.862v6.273a3.869,3.869,0,0,0,3.864,3.864h6.273a3.868,3.868,0,0,0,3.863-3.864v-6.273A3.866,3.866,0,0,0,3275.137,7615Zm.622,2.339a.909.909,0,1,0,.644.267A.916.916,0,0,0,3275.76,7617.34Zm-3.759,1.054a3.606,3.606,0,1,0,3.607,3.607A3.61,3.61,0,0,0,3272,7618.394Zm0,5.973a2.366,2.366,0,1,1,2.366-2.365A2.369,2.369,0,0,1,3272,7624.366Zm5.757.771a2.623,2.623,0,0,1-2.62,2.621h-6.273a2.624,2.624,0,0,1-2.622-2.621v-6.273a2.624,2.624,0,0,1,2.622-2.622h6.273a2.623,2.623,0,0,1,2.62,2.622v6.273Z" transform="translate(-3265 -7615.001)" fill="#1773ba" fill-rule="evenodd"/>
</svg>
