<svg xmlns="http://www.w3.org/2000/svg" width="8" height="13.654" viewBox="0 0 8 13.654">
  <path id="Контур_80" data-name="Контур 80" d="M6687,8350.155c0,1.2,1.723,1.447,2.429,1.785-.506.755-2.144,1.814-2.144,2.5s.288,1.215,1.072,1.215c.912,0,1.715-1.479,2.586-2.1h0l.025-.018h0v0h0v0h.008v0h0v0H6691v0h0l0,0h.008v0h0v0h.009v0h0v0h.006l.023.018h0c.871.625,1.675,2.1,2.586,2.1.784,0,1.072-.519,1.072-1.215s-1.638-1.745-2.144-2.5c.706-.338,2.429-.588,2.429-1.785a1.23,1.23,0,0,0-.3-.7c-.748-.742-1.683.053-2.12.21a4.72,4.72,0,0,1-1.571.3h-.021a4.722,4.722,0,0,1-1.572-.3c-.437-.157-1.372-.952-2.12-.21A1.226,1.226,0,0,0,6687,8350.155Zm3.977-8.154a3.547,3.547,0,1,0,3.547,3.547A3.548,3.548,0,0,0,6690.977,8342Zm0,2.136a1.411,1.411,0,1,0,1.41,1.411A1.411,1.411,0,0,0,6690.977,8344.137Z" transform="translate(-6687 -8342.001)" fill="#1773ba" fill-rule="evenodd"/>
</svg>
