<svg xmlns="http://www.w3.org/2000/svg" width="15.005" height="8.561" viewBox="0 0 15.005 8.561">
  <path id="Контур_81" data-name="Контур 81" d="M14.977-7.938q.18.5-1.172,2.3-.188.25-.508.664-.312.4-.43.563a3.755,3.755,0,0,0-.238.387.515.515,0,0,0-.094.328,1.763,1.763,0,0,0,.1.27,1.119,1.119,0,0,0,.254.336q.18.172.445.414a.085.085,0,0,1,.039.031A7.781,7.781,0,0,1,14.867-.922a1.084,1.084,0,0,1,.051.1.961.961,0,0,1,.055.207.6.6,0,0,1,0,.266.386.386,0,0,1-.2.215.906.906,0,0,1-.461.1l-2,.031a.876.876,0,0,1-.437-.039,1.9,1.9,0,0,1-.406-.172l-.156-.094a3.662,3.662,0,0,1-.547-.5q-.312-.336-.535-.605a2.588,2.588,0,0,0-.477-.453.5.5,0,0,0-.441-.121.511.511,0,0,0-.062.027.681.681,0,0,0-.133.113.993.993,0,0,0-.168.23,1.6,1.6,0,0,0-.133.406,2.576,2.576,0,0,0-.051.605.8.8,0,0,1-.027.215A.527.527,0,0,1,8.68-.25l-.031.039a.621.621,0,0,1-.414.172h-.9A3.551,3.551,0,0,1,6.2-.168,4.36,4.36,0,0,1,5.168-.582a9.369,9.369,0,0,1-.8-.516,4.642,4.642,0,0,1-.551-.449l-.2-.187q-.078-.078-.215-.234T2.844-2.68q-.422-.555-.828-1.18T1.059-5.508Q.508-6.531.039-7.633a.623.623,0,0,1-.047-.211.253.253,0,0,1,.023-.125l.031-.047a.544.544,0,0,1,.445-.148L2.633-8.18a.836.836,0,0,1,.18.051.53.53,0,0,1,.125.066l.039.023a.515.515,0,0,1,.188.25q.156.391.359.809t.32.637l.125.227q.227.469.438.812a4.013,4.013,0,0,0,.379.535,1.871,1.871,0,0,0,.324.3.5.5,0,0,0,.266.109A.583.583,0,0,0,5.586-4.4a.134.134,0,0,0,.039-.039,1.553,1.553,0,0,0,.094-.172,1.265,1.265,0,0,0,.105-.367q.035-.227.074-.633a6.07,6.07,0,0,0,0-.977,3.631,3.631,0,0,0-.07-.57,1.5,1.5,0,0,0-.109-.359l-.047-.094a.958.958,0,0,0-.664-.336q-.1-.016.039-.187a.926.926,0,0,1,.3-.234,5.125,5.125,0,0,1,1.867-.187,5.192,5.192,0,0,1,1.055.1.9.9,0,0,1,.262.105.419.419,0,0,1,.16.188,1.222,1.222,0,0,1,.082.25,1.8,1.8,0,0,1,.027.355q0,.227-.008.43t-.02.551q-.012.348-.012.645,0,.086-.008.328t0,.375q0,.133.027.316a.859.859,0,0,0,.09.3.52.52,0,0,0,.176.191l.133.031q.07.016.2-.086a2.838,2.838,0,0,0,.3-.27,4.04,4.04,0,0,0,.406-.523q.242-.355.531-.84a12.748,12.748,0,0,0,.836-1.758A.535.535,0,0,1,11.523-8a.349.349,0,0,1,.086-.082l.031-.023.039-.02a.415.415,0,0,1,.1-.023.628.628,0,0,1,.156,0l2.25-.016a1.229,1.229,0,0,1,.5.02.456.456,0,0,1,.242.129Z" transform="translate(0.008 8.556)" fill="#1773ba"/>
</svg>
